<mxfile host="app.diagrams.net" modified="2023-10-08T07:43:36.242Z" agent="Mozilla/5.0 (Windows NT 10.0; Win64; x64) AppleWebKit/537.36 (KHTML, like Gecko) Chrome/105.0.0.0 Safari/537.36" etag="jNmySvypBoGowKO93Vku" version="21.7.5" type="github">
  <diagram id="C5RBs43oDa-KdzZeNtuy" name="Page-1">
    <mxGraphModel dx="1434" dy="-405" grid="1" gridSize="10" guides="1" tooltips="1" connect="1" arrows="1" fold="1" page="1" pageScale="1" pageWidth="827" pageHeight="1169" math="0" shadow="0">
      <root>
        <mxCell id="WIyWlLk6GJQsqaUBKTNV-0" />
        <mxCell id="WIyWlLk6GJQsqaUBKTNV-1" parent="WIyWlLk6GJQsqaUBKTNV-0" />
        <mxCell id="OUV8AKBQ5jLxx3nRXxw6-20" value="" style="rounded=1;whiteSpace=wrap;html=1;" vertex="1" parent="WIyWlLk6GJQsqaUBKTNV-1">
          <mxGeometry x="295" y="1720.25" width="190" height="300" as="geometry" />
        </mxCell>
        <mxCell id="OUV8AKBQ5jLxx3nRXxw6-21" value="更新镭雕活动商品库存信息" style="rounded=1;whiteSpace=wrap;html=1;" vertex="1" parent="WIyWlLk6GJQsqaUBKTNV-1">
          <mxGeometry x="760" y="1719.75" width="210" height="300.5" as="geometry" />
        </mxCell>
        <mxCell id="OUV8AKBQ5jLxx3nRXxw6-22" style="edgeStyle=orthogonalEdgeStyle;rounded=0;orthogonalLoop=1;jettySize=auto;html=1;entryX=0;entryY=0.5;entryDx=0;entryDy=0;" edge="1" parent="WIyWlLk6GJQsqaUBKTNV-1" source="OUV8AKBQ5jLxx3nRXxw6-23" target="OUV8AKBQ5jLxx3nRXxw6-20">
          <mxGeometry relative="1" as="geometry">
            <mxPoint x="250" y="1840" as="targetPoint" />
          </mxGeometry>
        </mxCell>
        <mxCell id="OUV8AKBQ5jLxx3nRXxw6-23" value="Actor" style="shape=umlActor;verticalLabelPosition=bottom;verticalAlign=top;html=1;outlineConnect=0;" vertex="1" parent="WIyWlLk6GJQsqaUBKTNV-1">
          <mxGeometry x="30" y="1840" width="30" height="60" as="geometry" />
        </mxCell>
        <mxCell id="OUV8AKBQ5jLxx3nRXxw6-24" value="/customization/addLaserActivity" style="text;html=1;align=center;verticalAlign=middle;resizable=0;points=[];autosize=1;strokeColor=none;fillColor=none;" vertex="1" parent="WIyWlLk6GJQsqaUBKTNV-1">
          <mxGeometry x="90" y="1838" width="190" height="30" as="geometry" />
        </mxCell>
        <mxCell id="OUV8AKBQ5jLxx3nRXxw6-25" value="营销管理&lt;br&gt;创建镭雕活动页面" style="text;html=1;strokeColor=none;fillColor=none;align=center;verticalAlign=middle;whiteSpace=wrap;rounded=0;" vertex="1" parent="WIyWlLk6GJQsqaUBKTNV-1">
          <mxGeometry x="335" y="1740" width="110" height="59" as="geometry" />
        </mxCell>
        <mxCell id="OUV8AKBQ5jLxx3nRXxw6-26" value="维护方式" style="rounded=1;whiteSpace=wrap;html=1;" vertex="1" parent="WIyWlLk6GJQsqaUBKTNV-1">
          <mxGeometry x="332.5" y="1820" width="115" height="40" as="geometry" />
        </mxCell>
        <mxCell id="OUV8AKBQ5jLxx3nRXxw6-29" value="服务端" style="text;html=1;strokeColor=none;fillColor=none;align=center;verticalAlign=middle;whiteSpace=wrap;rounded=0;" vertex="1" parent="WIyWlLk6GJQsqaUBKTNV-1">
          <mxGeometry x="827" y="1739" width="60" height="30" as="geometry" />
        </mxCell>
        <mxCell id="OUV8AKBQ5jLxx3nRXxw6-42" value="" style="endArrow=classic;html=1;rounded=0;exitX=0.984;exitY=0.536;exitDx=0;exitDy=0;exitPerimeter=0;entryX=0.01;entryY=0.53;entryDx=0;entryDy=0;entryPerimeter=0;" edge="1" parent="WIyWlLk6GJQsqaUBKTNV-1" source="OUV8AKBQ5jLxx3nRXxw6-20" target="OUV8AKBQ5jLxx3nRXxw6-21">
          <mxGeometry width="50" height="50" relative="1" as="geometry">
            <mxPoint x="484.9200000000001" y="1880" as="sourcePoint" />
            <mxPoint x="745" y="1878" as="targetPoint" />
          </mxGeometry>
        </mxCell>
        <mxCell id="OUV8AKBQ5jLxx3nRXxw6-44" value="库存数量" style="rounded=1;whiteSpace=wrap;html=1;" vertex="1" parent="WIyWlLk6GJQsqaUBKTNV-1">
          <mxGeometry x="331.25" y="1920" width="117.5" height="30" as="geometry" />
        </mxCell>
        <mxCell id="OUV8AKBQ5jLxx3nRXxw6-45" value="新增j接口/laser/activity/save" style="text;html=1;align=center;verticalAlign=middle;resizable=0;points=[];autosize=1;strokeColor=none;fillColor=none;" vertex="1" parent="WIyWlLk6GJQsqaUBKTNV-1">
          <mxGeometry x="550" y="1838" width="170" height="30" as="geometry" />
        </mxCell>
        <mxCell id="OUV8AKBQ5jLxx3nRXxw6-46" value="post" style="text;html=1;align=center;verticalAlign=middle;resizable=0;points=[];autosize=1;strokeColor=none;fillColor=none;" vertex="1" parent="WIyWlLk6GJQsqaUBKTNV-1">
          <mxGeometry x="500" y="1838" width="50" height="30" as="geometry" />
        </mxCell>
        <mxCell id="OUV8AKBQ5jLxx3nRXxw6-47" value="post" style="text;html=1;align=center;verticalAlign=middle;resizable=0;points=[];autosize=1;strokeColor=none;fillColor=none;" vertex="1" parent="WIyWlLk6GJQsqaUBKTNV-1">
          <mxGeometry x="500" y="1890" width="50" height="30" as="geometry" />
        </mxCell>
        <mxCell id="OUV8AKBQ5jLxx3nRXxw6-48" value="编辑接口/laser/activity/update" style="text;html=1;align=center;verticalAlign=middle;resizable=0;points=[];autosize=1;strokeColor=none;fillColor=none;" vertex="1" parent="WIyWlLk6GJQsqaUBKTNV-1">
          <mxGeometry x="545" y="1890" width="180" height="30" as="geometry" />
        </mxCell>
      </root>
    </mxGraphModel>
  </diagram>
</mxfile>
